<?xml version="1.0" standalone="no"?>
<!DOCTYPE svg PUBLIC "-//W3C//DTD SVG 20010904//EN"
 "http://www.w3.org/TR/2001/REC-SVG-20010904/DTD/svg10.dtd">
<svg version="1.0" xmlns="http://www.w3.org/2000/svg"
 width="300.000000pt" height="300.000000pt" viewBox="0 0 300.000000 300.000000"
 preserveAspectRatio="xMidYMid meet">
<metadata>
Created by potrace 1.15, written by Peter Selinger 2001-2017
</metadata>
<g transform="translate(0.000000,300.000000) scale(0.100000,-0.100000)"
fill="#000000" stroke="none">
<path d="M805 2993 c-251 -24 -438 -111 -585 -270 -118 -128 -187 -295 -210
-505 -13 -129 -13 -1307 0 -1436 45 -410 284 -679 675 -759 82 -16 153 -18
815 -18 662 0 733 2 815 18 193 40 341 120 465 254 118 129 185 291 209 507
15 127 15 1305 0 1432 -45 408 -272 670 -654 757 -86 20 -124 21 -790 22 -385
1 -718 0 -740 -2z m1340 -283 c201 -19 308 -62 407 -160 75 -75 120 -169 145
-298 16 -88 18 -159 18 -752 0 -593 -2 -664 -18 -752 -44 -230 -175 -378 -383
-432 -111 -29 -279 -36 -814 -36 -535 0 -703 7 -814 36 -208 54 -339 202 -383
432 -16 88 -18 159 -18 752 0 593 2 664 18 752 54 282 222 427 534 457 129 12
1178 13 1308 1z"/>
<path d="M2225 2471 c-105 -47 -143 -172 -83 -269 55 -89 176 -115 260 -57 50
35 88 102 88 155 0 19 -9 53 -19 75 -45 98 -151 139 -246 96z"/>
<path d="M1365 2265 c-156 -29 -276 -90 -393 -200 -169 -158 -246 -336 -246
-565 0 -229 77 -407 246 -565 88 -83 161 -128 269 -167 171 -60 347 -60 518 0
108 39 181 84 269 167 169 158 246 336 246 565 0 170 -40 301 -132 436 -50 74
-171 189 -245 233 -158 93 -356 129 -532 96z m266 -291 c216 -64 359 -252 359
-474 0 -131 -43 -239 -134 -338 -91 -98 -218 -152 -356 -152 -273 0 -490 217
-490 490 0 219 136 403 349 471 71 23 200 24 272 3z"/>
</g>
</svg>
