<?xml version="1.0" encoding="UTF-8" standalone="no"?>
<!-- Created with Inkscape (http://www.inkscape.org/) -->

<svg
   xmlns:dc="http://purl.org/dc/elements/1.1/"
   xmlns:cc="http://creativecommons.org/ns#"
   xmlns:rdf="http://www.w3.org/1999/02/22-rdf-syntax-ns#"
   xmlns:svg="http://www.w3.org/2000/svg"
   xmlns="http://www.w3.org/2000/svg"
   xmlns:sodipodi="http://sodipodi.sourceforge.net/DTD/sodipodi-0.dtd"
   xmlns:inkscape="http://www.inkscape.org/namespaces/inkscape"
   id="svg4136"
   version="1.1"
   inkscape:version="0.91 r13725"
   width="264"
   height="328"
   viewBox="0 0 264 328"
   sodipodi:docname="Bell logo 2018.svg">
  <metadata
     id="metadata4142">
    <rdf:RDF>
      <cc:Work
         rdf:about="">
        <dc:format>image/svg+xml</dc:format>
        <dc:type
           rdf:resource="http://purl.org/dc/dcmitype/StillImage" />
        <dc:title></dc:title>
      </cc:Work>
    </rdf:RDF>
  </metadata>
  <defs
     id="defs4140">
    <pattern
       y="0"
       x="0"
       height="6"
       width="6"
       patternUnits="userSpaceOnUse"
       id="EMFhbasepattern" />
    <pattern
       y="0"
       x="0"
       height="6"
       width="6"
       patternUnits="userSpaceOnUse"
       id="EMFhbasepattern-5" />
  </defs>
  <sodipodi:namedview
     pagecolor="#ffffff"
     bordercolor="#666666"
     borderopacity="1"
     objecttolerance="10"
     gridtolerance="10"
     guidetolerance="10"
     inkscape:pageopacity="0"
     inkscape:pageshadow="2"
     inkscape:window-width="1600"
     inkscape:window-height="838"
     id="namedview4138"
     showgrid="false"
     showguides="true"
     fit-margin-top="0"
     fit-margin-left="0"
     fit-margin-right="0"
     fit-margin-bottom="0"
     inkscape:zoom="1"
     inkscape:cx="223.29472"
     inkscape:cy="163.50554"
     inkscape:window-x="-8"
     inkscape:window-y="-8"
     inkscape:window-maximized="1"
     inkscape:current-layer="svg4136" />
  <text
     sodipodi:linespacing="125%"
     id="text4177"
     y="66.216293"
     x="-206.00671"
     style="font-style:normal;font-variant:normal;font-weight:400;font-size:51.95302582px;line-height:125%;font-family:Calibri;text-align:start;letter-spacing:0px;word-spacing:0px;text-anchor:start;fill:#00ff00;fill-opacity:1;stroke:none"
     xml:space="preserve"
     transform="scale(1.251508,0.79903604)"><tspan
       id="tspan4179"
       y="-75.090477"
       x="-214.14166"
       sodipodi:role="line"><tspan
         id="tspan4181"
         style="font-style:normal;font-variant:normal;font-weight:400;font-size:51.95302582px;font-family:Calibri;fill:#00ff00"
         dy="0"
         dx="0" /></tspan></text>
  <text
     sodipodi:linespacing="125%"
     id="text4273"
     y="183.32494"
     x="-572.72308"
     style="font-style:normal;font-variant:normal;font-weight:400;font-size:10.34742832px;line-height:125%;font-family:Calibri;text-align:start;letter-spacing:0px;word-spacing:0px;text-anchor:start;fill:#000000;fill-opacity:1;stroke:none"
     xml:space="preserve"
     transform="scale(1.3348728,0.74913506)"><tspan
       id="tspan4275"
       y="-80.092369"
       x="-200.76819"
       sodipodi:role="line"><tspan
         id="tspan4277"
         style="font-style:normal;font-variant:normal;font-weight:400;font-size:10.34742832px;font-family:Calibri;fill:#000000"
         dy="0"
         dx="0" /></tspan></text>
  <g
     id="g4295">
    <path
       inkscape:connector-curvature="0"
       id="path4146"
       d="m 11.61429,6.765605 0,180.783205 c 0.59593,32.06847 76.84921,99.8034 121.08789,134.01953 l 0.002,-0.40039 0.22265,0.26953 c 44.23868,-34.21613 119.83767,-101.8202 120.4336,-133.88867 l 0,-180.783205 -119.48242,0 -2.78126,0 -119.48242,0 z"
       style="opacity:1;fill:#ad2227;fill-opacity:1;fill-rule:evenodd;stroke:none;stroke-width:1px;stroke-linecap:butt;stroke-linejoin:miter;stroke-opacity:1" />
    <path
       inkscape:connector-curvature="0"
       id="rect4151"
       d="m 11.5332,89.56641 0,8.88281 241.7461,0 0,-8.88281 -241.7461,0 z"
       style="opacity:1;fill:#ffffff;fill-opacity:1;stroke:none;stroke-width:96.90000153;stroke-miterlimit:4;stroke-dasharray:none;stroke-opacity:1" />
    <path
       sodipodi:nodetypes="cccccccccccccc"
       inkscape:connector-curvature="0"
       id="path4157"
       d="m 20.56921,119.15549 3.67217,7.60559 45.44335,22.53695 c 5.81694,3.26857 11.00457,4.66659 16.99507,4.80295 l 26.60099,0 c 4.03251,-0.0884 4.79097,1.82757 0.73891,2.95567 l -93.38711,29.57906 5.08662,5.51946 61.33005,0.36946 c 8.08172,0.40353 15.47907,-1.41716 22.16749,-5.54187 l 19.60369,-13.58416 -0.0224,-21.88382 c 0.0806,-6.08353 -6.58066,-13.46709 -16.23375,-14.99475 z"
       style="fill:#ffffff;fill-rule:evenodd;stroke:none;stroke-width:1px;stroke-linecap:butt;stroke-linejoin:miter;stroke-opacity:1" />
    <path
       style="fill:#ffffff;fill-rule:evenodd;stroke:none;stroke-width:1px;stroke-linecap:butt;stroke-linejoin:miter;stroke-opacity:1"
       d="m 244.29828,119.15549 -3.67217,7.60559 -45.44335,22.53695 c -5.81694,3.26857 -11.00457,4.66659 -16.99507,4.80295 l -26.60099,0 c -4.03251,-0.0884 -4.79097,1.82757 -0.73891,2.95567 l 93.38711,29.57906 -5.08662,5.51946 -61.33005,0.36946 c -8.08172,0.40353 -15.47907,-1.41716 -22.16749,-5.54187 l -19.60369,-13.58416 0.0224,-21.88382 c -0.0806,-6.08353 6.58066,-13.46709 16.23375,-14.99475 z"
       id="path4159"
       inkscape:connector-curvature="0"
       sodipodi:nodetypes="cccccccccccccc" />
    <path
       inkscape:connector-curvature="0"
       id="path4161"
       d="m 132.92578,182.43945 -0.002,0.0723 -14.41016,11.81445 c -2.29696,2.08705 -1.21573,3.25289 0.26172,4.31055 l 6.79297,4.96484 c 1.81303,1.42537 1.44689,2.93708 0.13086,3.78711 l -4.3125,3.13477 2.0918,2.61328 c 1.74632,2.26216 2.86188,3.05722 2.87304,8.88281 l 0.39258,65.70313 c -0.1612,14.77156 3.92543,26.30356 5.35547,31.34961 l 0.82617,0 0.0879,0 0.82617,0 c 1.43004,-5.04605 5.51667,-16.57805 5.35547,-31.34961 l 0.39063,-65.70313 c 0.0112,-5.82559 1.12868,-6.62065 2.875,-8.88281 l 2.08984,-2.61328 -4.31055,-3.13477 c -1.31603,-0.85003 -1.68217,-2.36174 0.13086,-3.78711 l 6.79102,-4.96484 c 1.47745,-1.05766 2.55868,-2.2235 0.26172,-4.31055 l -14.3711,-11.7832 -0.0391,-0.10352 -0.0449,0.0352 -0.043,-0.0352 z"
       style="opacity:1;fill:#ffffff;fill-rule:evenodd;stroke:none;stroke-width:1px;stroke-linecap:butt;stroke-linejoin:miter;stroke-opacity:1" />
    <path
       sodipodi:nodetypes="ccccc"
       inkscape:connector-curvature="0"
       id="path4166"
       d="m 111.84778,98.12808 21.21214,13.30049 26.77259,-16.25616 -54.11249,-0.60444 z"
       style="fill:#ffffff;fill-opacity:1;fill-rule:evenodd;stroke:none;stroke-width:1px;stroke-linecap:butt;stroke-linejoin:miter;stroke-opacity:1" />
    <path
       sodipodi:nodetypes="ccccccccc"
       inkscape:connector-curvature="0"
       id="path4170"
       d="m 131.31504,109.68267 -10.7111,14.62979 c -2.08997,3.30912 -1.74164,5.57326 1.04499,6.79241 l 21.16095,0 c 4.48132,-0.1541 3.28226,-3.14839 2.35122,-6.00867 l -11.23359,-16.45852 -1.30624,-0.26124 -0.78373,0.26124 z"
       style="fill:#ffffff;fill-rule:evenodd;stroke:none;stroke-width:1px;stroke-linecap:butt;stroke-linejoin:miter;stroke-opacity:1" />
    <path
       inkscape:connector-curvature="0"
       id="path4183"
       d="m 32.75,21.894531 8.75781,10.667969 2.43164,0 0,-0.002 8.89063,0.103515 -9.41406,9.544915 0,33.95313 14.80664,0 0.9707,0 1.94531,0 2.1211,0 7.66992,0 c 1.04179,0 3.19031,-0.24763 6.41992,-0.74023 2.43528,-0.38135 4.24713,-0.95289 5.44531,-1.7793 1.90128,-1.30304 3.49009,-3.0676 4.58399,-5.32422 1.08096,-2.26451 1.66601,-4.77503 1.66601,-7.58789 0,-3.44844 -0.80645,-6.32462 -2.33008,-8.62891 -1.56278,-2.26451 -4.06532,-3.86904 -7.37304,-4.80664 2.1617,-0.90586 3.88322,-2.10529 4.99023,-3.63086 1.67982,-2.30429 2.56445,-5.029827 2.56445,-8.255854 0,-3.806022 -1.23721,-7.016979 -3.56836,-9.615234 -2.37006,-2.606207 -5.8476,-3.892578 -10.31445,-3.892578 l -9.7539,0 -2.1211,0 -1.94531,0 -0.9707,0 -14.29493,0 0,-0.0059 -11.17773,0 z m 24.47852,11.001953 0.99414,0 0.9707,0 1.94531,0 2.1211,0 3.71093,0 c 2.18781,0 3.72521,0.438036 4.59766,1.335938 0.83363,0.889928 1.28906,2.104265 1.28906,3.693359 0,1.708352 -0.45563,2.996799 -1.28906,3.886719 -0.87245,0.92962 -2.44952,1.375 -4.68945,1.375 l -3.61914,0 -2.1211,0 -1.94531,0 -0.9707,0 -0.99414,0 0,-10.291016 z m 0,20.611326 0.99414,0 0.9707,0 1.94531,0 2.1211,0 4.66211,0 c 2.50029,0 4.28437,0.47796 5.2871,1.44727 0.96382,1.00121 1.48438,2.29559 1.48438,3.88476 0,1.74017 -0.52056,3.10626 -1.52344,4.10743 -0.98963,1.04093 -2.74774,1.55859 -5.20898,1.55859 l -4.70117,0 -2.1211,0 -1.94531,0 -0.9707,0 -0.99414,0 0,-10.99805 z"
       style="opacity:1;fill:#ffffff;fill-opacity:1;fill-rule:evenodd;stroke:none" />
    <path
       inkscape:connector-curvature="0"
       id="path4185"
       d="m 104.86719,21.160156 -5.98633,5.539063 0,48.722661 18.47265,0 18.88672,0 2.29493,0 0,-12.28321 -2.29493,0 -18.88672,0 -4.74609,0 0,-10.70312 7.07227,0 14.23437,0 4.6211,0 0,-11.06055 -4.6211,0 -14.23437,0 -7.07227,0 0,-8.628906 5.41797,0 17.54297,0 2.9668,0 0,-11.585938 -2.9668,0 -17.54297,0 -13.1582,0 z"
       style="opacity:1;fill:#ffffff;fill-opacity:1;fill-rule:evenodd;stroke:none" />
    <path
       inkscape:connector-curvature="0"
       id="path4187"
       d="m 157.04883,20.638672 -6.23828,5.773437 0,48.488281 24.85351,0 10.20313,0 5.22656,0 0,-13.35742 -5.22656,0 -21.36719,0 0,-40.904298 -7.45117,0 z"
       style="opacity:1;fill:#ffffff;fill-opacity:1;fill-rule:evenodd;stroke:none" />
    <path
       inkscape:connector-curvature="0"
       style="opacity:1;fill:#ffffff;fill-opacity:1;fill-rule:evenodd;stroke:none"
       d="m 208.14248,20.638672 -6.23828,5.773437 0,48.488281 24.85351,0 10.20313,0 5.22656,0 0,-13.35742 -5.22656,0 -21.36719,0 0,-40.904298 -7.45117,0 z"
       id="path4227" />
    <path
       style="fill:#ffffff;fill-opacity:1;fill-rule:evenodd;stroke:none"
       d="m 237.28242,16.33649 c 0,-2.05612 0,-4.11092 0,-6.16705 -0.87343,0 -1.74689,0 -2.62034,0 0,-0.41864 0,-0.83728 0,-1.25593 2.33943,0 4.67887,0 7.01831,0 0,0.41865 0,0.83729 0,1.25593 -0.87109,0 -1.7422,0 -2.61565,0 0,2.05613 0,4.11093 0,6.16705 -0.59487,0 -1.18743,0 -1.78232,0 z"
       id="path4279"
       inkscape:connector-curvature="0" />
    <path
       style="fill:#ffffff;fill-opacity:1;fill-rule:evenodd;stroke:none"
       d="m 242.80642,16.33649 c 0,-2.47477 0,-4.94821 0,-7.42298 0.88999,0 1.77997,0 2.66993,0 0.52408,1.68915 1.07883,3.37433 1.60291,5.06346 0.51698,-1.68913 1.06468,-3.37431 1.58402,-5.06346 0.88995,0 1.78231,0 2.67464,0 0,2.47477 0,4.94821 0,7.42298 -0.55241,0 -1.10479,0 -1.6572,0 0,-1.94749 0,-3.89498 0,-5.84246 -0.57365,1.94748 -1.18033,3.89365 -1.75398,5.84246 -0.57129,0 -1.14257,0 -1.71622,0 -0.57128,-1.94881 -1.1756,-3.89498 -1.74691,-5.84246 0,1.94748 0,3.89497 0,5.84246 -0.55238,0 -1.10479,0 -1.65719,0 z"
       id="path4281"
       inkscape:connector-curvature="0" />
  </g>
</svg>
