<?xml version="1.0" encoding="utf-8"?>
<!-- Generator: Adobe Illustrator 19.2.1, SVG Export Plug-In . SVG Version: 6.00 Build 0)  -->
<svg version="1.1" id="layer" xmlns="http://www.w3.org/2000/svg" xmlns:xlink="http://www.w3.org/1999/xlink" x="0px" y="0px"
	 viewBox="0 0 652 652" style="enable-background:new 0 0 652 652;" xml:space="preserve">
<style type="text/css">
	.st0{fill:#FDB813;}
	.st1{fill:#0E254D;}
</style>
<polygon class="st0" points="139.3,299 151.3,299 160.9,330.1 161.1,330.1 170,299 182,299 191.6,330.1 191.8,330.1 201.1,299 
	212.2,299 197.2,343.4 186.2,343.4 175.7,313.1 175.5,313.1 166.2,343.4 154.7,343.4 "/>
<g>
	<path class="st0" d="M222.1,325.1c0.7,6.6,5.7,10.5,11.9,10.5c5.5,0,9.1-2.6,11.9-6l7.9,6c-5.2,6.4-11.7,8.9-18.8,8.9
		c-13.4,0-24.1-9.3-24.1-23.3c0-13.9,10.7-23.3,24.1-23.3c12.4,0,20.8,8.7,20.8,24.1v3H222.1z M244.8,316.7
		c-0.1-6.5-4.3-10.5-11.3-10.5c-6.6,0-10.6,4.2-11.4,10.5H244.8z"/>
	<path class="st0" d="M287,311.3c-2.1-3-4.9-4.5-8.7-4.5c-3,0-6.5,1.4-6.5,4.7c0,7.9,23.9,1.5,23.9,18.8c0,10.5-10.1,14.2-19.1,14.2
		c-6.8,0-12.7-1.8-17.3-6.8l7.4-6.9c2.9,3.1,5.8,5.5,10.5,5.5c3.2,0,7.4-1.6,7.4-5.1c0-9.1-23.9-1.9-23.9-18.8
		c0-9.9,8.9-14.3,17.8-14.3c5.9,0,12.2,1.8,15.8,6.7L287,311.3z"/>
	<path class="st0" d="M297.3,308.4V299h9.1v-12.8h11.1V299h12.2v9.4h-12.2v19.4c0,4.4,1.3,7.2,6.2,7.2c1.9,0,4.6-0.4,6-1.4v9.3
		c-2.3,1.1-6.2,1.5-8.8,1.5c-11.7,0-14.5-5.3-14.5-15.7v-20.3H297.3z"/>
	<polygon class="st1" points="337.1,299.1 351.8,299.1 361.9,327.9 362.1,327.9 372.3,299.1 386.9,299.1 386.9,343.2 377.2,343.2 
		377.2,309.4 377.1,309.4 365.5,343.2 358.1,343.2 346.9,309.4 346.8,309.4 346.8,343.2 337.1,343.2 	"/>
	<path class="st1" d="M417.4,298c13.8,0,23.8,9,23.8,23.2c0,14.2-10,23.2-23.8,23.2c-13.8,0-23.8-9-23.8-23.2
		C393.5,307,403.6,298,417.4,298 M417.4,335.4c8.3,0,13.7-6,13.7-14.2c0-8.2-5.4-14.2-13.7-14.2c-8.3,0-13.7,6-13.7,14.2
		C403.6,329.4,409.1,335.4,417.4,335.4"/>
	<polygon class="st1" points="447.8,299.1 461,299.1 479.8,329.8 479.9,329.8 479.9,299.1 489.6,299.1 489.6,343.2 476.9,343.2 
		457.6,311.8 457.5,311.8 457.5,343.2 447.8,343.2 	"/>
	<path class="st1" d="M497,299.1h17.1c9,0,16.6,3.1,16.6,13.4c0,6.2-3.3,11-9.5,12.1l11.2,18.6h-11.6l-9.2-17.6h-4.8v17.6H497V299.1
		z M506.7,317.4h5.7c3.6,0,8.2-0.1,8.2-4.9c0-4.4-4-5.1-7.5-5.1h-6.4V317.4z"/>
	<path class="st1" d="M558.8,298c13.8,0,23.8,9,23.8,23.2c0,14.2-10,23.2-23.8,23.2c-13.8,0-23.8-9-23.8-23.2
		C535,307,545,298,558.8,298 M558.8,335.4c8.3,0,13.7-6,13.7-14.2c0-8.2-5.4-14.2-13.7-14.2c-8.3,0-13.7,6-13.7,14.2
		C545.1,329.4,550.5,335.4,558.8,335.4"/>
	<polygon class="st1" points="589.3,299.1 619.3,299.1 619.3,308.1 599,308.1 599,316.3 618.1,316.3 618.1,325.3 599,325.3 
		599,334.3 620.4,334.3 620.4,343.2 589.3,343.2 	"/>
	<rect x="35.6" y="284.4" class="st1" width="14.7" height="14.7"/>
	<rect x="35.6" y="343.3" class="st1" width="14.7" height="14.7"/>
	<rect x="94.5" y="284.4" class="st1" width="14.7" height="14.7"/>
	<rect x="94.5" y="343.3" class="st1" width="14.7" height="14.7"/>
	
		<rect x="23.4" y="313.9" transform="matrix(0.7071 -0.7071 0.7071 0.7071 -218.1513 115.8626)" class="st0" width="14.7" height="14.7"/>
	
		<rect x="65" y="355.5" transform="matrix(0.7072 -0.707 0.707 0.7072 -235.3582 157.4261)" class="st1" width="14.7" height="14.7"/>
	
		<rect x="65.1" y="272.2" transform="matrix(0.7069 -0.7073 0.7073 0.7069 -176.517 133.1868)" class="st1" width="14.7" height="14.7"/>
	
		<rect x="106.7" y="313.8" transform="matrix(0.7071 -0.7071 0.7071 0.7071 -193.7146 174.7227)" class="st1" width="14.7" height="14.7"/>
</g>
</svg>
